<?xml version="1.0" encoding="UTF-8"?>
<svg width="66px" height="66px" viewBox="0 0 66 66" version="1.1" xmlns="http://www.w3.org/2000/svg" xmlns:xlink="http://www.w3.org/1999/xlink">
    <title>icon-delivery-moto</title>
    <g id="Piccadely" stroke="none" stroke-width="1" fill="none" fill-rule="evenodd" stroke-linecap="round" stroke-linejoin="round">
        <g id="Piccadely-07-Area-de-cobertura" transform="translate(-799.000000, -494.000000)" stroke="#101820" stroke-width="1.3">
            <g id="icon-delivery-moto" transform="translate(800.000000, 495.000000)">
                <g id="Group-27" transform="translate(10.923564, 15.976196)">
                    <path d="M20.8047158,12.7736842 L14.2341895,12.7736842 L14.2341895,9.64694737 L20.8047158,9.64694737 C21.1744,9.64694737 21.4746105,9.94673684 21.4746105,10.3168421 L21.4746105,12.1037895 C21.4746105,12.4738947 21.1744,12.7736842 20.8047158,12.7736842 Z" id="Stroke-1"> </path>
                    <path d="M3.44635789,-0.000168421053 L14.2341474,-0.000168421053 L14.2341474,12.7737263 L4.21052632e-05,12.7737263 L4.21052632e-05,3.44656842 C4.21052632e-05,1.54298947 1.54277895,-0.000168421053 3.44635789,-0.000168421053 Z" id="Stroke-3"> </path>
                    <line x1="0" y1="3.44635789" x2="14.2341053" y2="3.44635789" id="Stroke-5"> </line>
                    <path d="M20.0658105,25.9920421 L0.000126315789,25.9920421 C0.000126315789,18.6918316 5.91802105,12.7735158 13.2182316,12.7735158 L18.5024421,12.7735158 C19.3660211,12.7735158 20.0658105,13.4737263 20.0658105,14.3368842 L20.0658105,22.4004632 L25.6590737,22.4004632 C27.8481263,22.4004632 29.6224421,20.6257263 29.6224421,18.4366737 L29.6224421,5.98572632" id="Stroke-7"> </path>
                    <line x1="0" y1="12.7736842" x2="3.87157895" y2="16.6452632" id="Stroke-9"> </line>
                    <path d="M14.2968842,25.9920421 C14.2968842,28.4703579 12.2876211,30.4796211 9.80930526,30.4796211 C7.33098947,30.4796211 5.32172632,28.4703579 5.32172632,25.9920421" id="Stroke-11"> </path>
                    <path d="M2.94677895,25.9920421 C2.94677895,22.2021474 6.0192,19.1297263 9.80909474,19.1297263 C13.5994105,19.1297263 16.6718316,22.2021474 16.6718316,25.9920421" id="Stroke-13"> </path>
                    <path d="M39.9722526,25.9920421 C39.9722526,28.4703579 37.9634105,30.4796211 35.4846737,30.4796211 C33.0063579,30.4796211 30.9975158,28.4703579 30.9975158,25.9920421" id="Stroke-15"> </path>
                    <path d="M27.4342316,4.04176842 L27.4342316,4.04176842 C27.4342316,2.96808421 28.3045474,2.09818947 29.3782316,2.09818947 L32.2140211,2.09818947 C33.2872842,2.09818947 34.1576,2.96808421 34.1576,4.04176842 C34.1576,5.11545263 33.2872842,5.98576842 32.2140211,5.98576842 L29.6224421,5.98576842" id="Stroke-17"> </path>
                    <path d="M20.0658105,25.9920421 L27.4940211,25.9920421 C30.1828632,25.9920421 32.6910737,24.6354105 34.1626526,22.3848842 C35.5062316,20.3305684 35.8279158,17.7718316 35.0346526,15.4488842 L31.8039158,5.98572632" id="Stroke-19"> </path>
                    <path d="M35.4848,19.1297684 C39.2746947,19.1297684 42.3471158,22.2021895 42.3471158,25.9920842 L24.8393263,25.9920842" id="Stroke-21"> </path>
                    <path d="M35.4214737,2.09810526 L35.4214737,2.09810526 C34.7233684,2.09810526 34.1578947,2.968 34.1578947,4.04168421 C34.1578947,5.11536842 34.7233684,5.98568421 35.4214737,5.98568421 C36.1191579,5.98568421 36.6850526,5.11536842 36.6850526,4.04168421 C36.6850526,2.968 36.1191579,2.09810526 35.4214737,2.09810526 Z" id="Stroke-23"> </path>
                    <line x1="27.4342316" y1="4.04176842" x2="25.4426526" y2="4.04176842" id="Stroke-25"> </line>
                </g>
                <path d="M64,32 C64,49.6726719 49.6722175,64 31.998985,64 C14.3257525,64 0,49.6726719 0,32 C0,14.3273281 14.3257525,0 31.998985,0 C49.6722175,0 64,14.3273281 64,32 Z" id="Stroke-15"> </path>
            </g>
        </g>
    </g>
</svg>