<?xml version="1.0" encoding="UTF-8"?>
<svg width="66px" height="66px" viewBox="0 0 66 66" version="1.1" xmlns="http://www.w3.org/2000/svg" xmlns:xlink="http://www.w3.org/1999/xlink">
    <title>icon-delivery-camion</title>
    <g id="Piccadely" stroke="none" stroke-width="1" fill="none" fill-rule="evenodd" stroke-linecap="round" stroke-linejoin="round">
        <g id="Piccadely-07-Area-de-cobertura" transform="translate(-479.000000, -494.000000)" stroke="#E66451" stroke-width="1.3">
            <g id="icon-delivery-camion" transform="translate(480.000000, 495.000000)">
                <g id="Group-33" transform="translate(5.079365, 17.269841)">
                    <path d="M49.3647228,25.2882651 C49.3647228,27.4476444 47.6124143,29.1984245 45.450633,29.1984245 C43.2888518,29.1984245 41.5365433,27.4476444 41.5365433,25.2882651 C41.5365433,23.1293045 43.2888518,21.3785244 45.450633,21.3785244 C47.6124143,21.3785244 49.3647228,23.1293045 49.3647228,25.2882651 Z" id="Stroke-1"> </path>
                    <path d="M37.6238366,8.37397895 L45.5023096,8.37397895 C46.3342475,8.37397895 47.0987083,8.83239699 47.4897401,9.56628451 L50.8438958,15.8627296 C52.17332,15.8627296 53.2512768,16.9390701 53.2512768,18.2674358 L53.2512768,22.0088806 C54.0329213,22.0088806 54.6666191,22.6418743 54.6666191,23.4226502 L54.6666191,23.8743699 C54.6666191,24.6555645 54.0329213,25.2881395 53.2512768,25.2881395 L49.3648485,25.2881395" id="Stroke-3"> </path>
                    <polyline id="Stroke-5" points="40.8936669 8.37397895 40.9565338 15.8627296 50.9066788 15.8627296"> </polyline>
                    <path d="M45.4490404,25.2882651 C45.4490404,25.2874278 45.4498786,25.2870092 45.4507169,25.2870092 C45.4515551,25.2870092 45.4523933,25.2874278 45.4523933,25.2882651 C45.4523933,25.2895211 45.4515551,25.2899397 45.4507169,25.2899397 C45.4498786,25.2899397 45.4490404,25.2895211 45.4490404,25.2882651 Z" id="Stroke-7"> </path>
                    <path d="M21.4366719,25.2882651 C21.4366719,27.4476444 19.6843634,29.1984245 17.5225822,29.1984245 C15.360801,29.1984245 13.6084925,27.4476444 13.6084925,25.2882651 C13.6084925,23.1293045 15.360801,21.3785244 17.5225822,21.3785244 C19.6843634,21.3785244 21.4366719,23.1293045 21.4366719,25.2882651 Z" id="Stroke-9"> </path>
                    <path d="M17.5209896,25.2911538 C17.5209896,25.2915725 17.5214087,25.2924097 17.5218278,25.2924097 C17.522666,25.2924097 17.5230851,25.2915725 17.5230851,25.2911538 C17.5230851,25.2903165 17.522666,25.2898979 17.5218278,25.2898979 C17.5214087,25.2898979 17.5209896,25.2903165 17.5209896,25.2911538 Z" id="Stroke-11"> </path>
                    <polyline id="Stroke-13" points="21.4366719 25.2882651 37.6240462 25.2882651 37.6240462 3.15525582 17.5209057 3.15525582"> </polyline>
                    <path d="M13.6083667,25.2882651 L9.79863594,25.2882651 C9.01699151,25.2882651 8.38329372,24.6552715 8.38329372,23.8744955 L8.38329372,18.1189418" id="Stroke-15"> </path>
                    <line x1="41.536669" y1="25.2882651" x2="37.6238366" y2="25.2882651" id="Stroke-17"> </line>
                    <path d="M17.8993642,25.2882651 C17.8993642,25.4963325 17.7304619,25.6646285 17.5225822,25.6646285 C17.3142834,25.6646285 17.1458002,25.4963325 17.1458002,25.2882651 C17.1458002,25.0806164 17.3142834,24.9123205 17.5225822,24.9123205 C17.7304619,24.9123205 17.8993642,25.0806164 17.8993642,25.2882651 Z" id="Stroke-19"> </path>
                    <path d="M45.8292591,25.2882651 C45.8292591,25.4963325 45.6603568,25.6646285 45.4524771,25.6646285 C45.2441783,25.6646285 45.0752761,25.4963325 45.0752761,25.2882651 C45.0752761,25.0806164 45.2441783,24.9123205 45.4524771,24.9123205 C45.6603568,24.9123205 45.8292591,25.0806164 45.8292591,25.2882651 Z" id="Stroke-21"> </path>
                    <line x1="23.5694506" y1="22.353678" x2="37.6239624" y2="22.353678" id="Stroke-23"> </line>
                    <line x1="8.3832099" y1="22.353678" x2="11.6996455" y2="22.353678" id="Stroke-25"> </line>
                    <path d="M16.7662521,8.37397895 C16.7662521,12.9987681 13.0126824,16.7477486 8.38316798,16.7477486 C3.75323444,16.7477486 8.38224594e-05,12.9987681 8.38224594e-05,8.37397895 C8.38224594e-05,3.74918977 3.75323444,-0.000209323308 8.38316798,-0.000209323308 C13.0126824,-0.000209323308 16.7662521,3.74918977 16.7662521,8.37397895 Z" id="Stroke-27"> </path>
                    <line x1="8.3832099" y1="3.04523549" x2="8.3832099" y2="8.37418827" id="Stroke-29"> </line>
                    <line x1="12.1936951" y1="12.1802303" x2="8.38312607" y2="8.37389522" id="Stroke-31"> </line>
                </g>
                <path d="M64,32 C64,49.6726719 49.6722175,64 31.998985,64 C14.3257525,64 0,49.6726719 0,32 C0,14.3273281 14.3257525,0 31.998985,0 C49.6722175,0 64,14.3273281 64,32 Z" id="Stroke-15-Copy"> </path>
            </g>
        </g>
    </g>
</svg>